<?xml version="1.0" encoding="us-ascii" standalone="no"?><svg xmlns="http://www.w3.org/2000/svg" xmlns:xlink="http://www.w3.org/1999/xlink" contentStyleType="text/css" height="445px" preserveAspectRatio="none" style="width:1227px;height:445px;background:#003153;" version="1.1" viewBox="0 0 1227 445" width="1227px" zoomAndPan="magnify"><defs/><g><rect fill="#003153" height="445" style="stroke:none;stroke-width:1.0;" width="1227" x="0" y="0"/><line style="stroke:#D9D3D0;stroke-width:1.0;" x1="33" x2="33" y1="82.2969" y2="364.4922"/><line style="stroke:#D9D3D0;stroke-width:1.0;" x1="90" x2="90" y1="82.2969" y2="364.4922"/><line style="stroke:#D9D3D0;stroke-width:1.0;" x1="199" x2="199" y1="82.2969" y2="364.4922"/><line style="stroke:#D9D3D0;stroke-width:1.0;" x1="343" x2="343" y1="82.2969" y2="364.4922"/><line style="stroke:#D9D3D0;stroke-width:1.0;" x1="466" x2="466" y1="82.2969" y2="364.4922"/><line style="stroke:#D9D3D0;stroke-width:1.0;" x1="652" x2="652" y1="82.2969" y2="364.4922"/><line style="stroke:#D9D3D0;stroke-width:1.0;" x1="843" x2="843" y1="82.2969" y2="364.4922"/><line style="stroke:#D9D3D0;stroke-width:1.0;" x1="963.5" x2="963.5" y1="82.2969" y2="364.4922"/><line style="stroke:#D9D3D0;stroke-width:1.0;" x1="1072.5" x2="1072.5" y1="82.2969" y2="364.4922"/><line style="stroke:#D9D3D0;stroke-width:1.0;" x1="1183.5" x2="1183.5" y1="82.2969" y2="364.4922"/><text fill="#D9D3D0" font-family="Verdana" font-size="14" lengthAdjust="spacing" textLength="41" x="10" y="78.9951">User1</text><ellipse cx="33.5" cy="14" fill="#003153" rx="8" ry="8" style="stroke:#D9D3D0;stroke-width:1.0;"/><path d="M33.5,22 L33.5,49 M20.5,30 L46.5,30 M33.5,49 L20.5,64 M33.5,49 L46.5,64 " fill="none" style="stroke:#D9D3D0;stroke-width:1.0;"/><text fill="#D9D3D0" font-family="Verdana" font-size="14" lengthAdjust="spacing" textLength="41" x="10" y="376.4873">User1</text><ellipse cx="33.5" cy="388.7891" fill="#003153" rx="8" ry="8" style="stroke:#D9D3D0;stroke-width:1.0;"/><path d="M33.5,396.7891 L33.5,423.7891 M20.5,404.7891 L46.5,404.7891 M33.5,423.7891 L20.5,438.7891 M33.5,423.7891 L46.5,438.7891 " fill="none" style="stroke:#D9D3D0;stroke-width:1.0;"/><text fill="#D9D3D0" font-family="Verdana" font-size="14" lengthAdjust="spacing" textLength="41" x="67" y="78.9951">User2</text><ellipse cx="90.5" cy="14" fill="#003153" rx="8" ry="8" style="stroke:#D9D3D0;stroke-width:1.0;"/><path d="M90.5,22 L90.5,49 M77.5,30 L103.5,30 M90.5,49 L77.5,64 M90.5,49 L103.5,64 " fill="none" style="stroke:#D9D3D0;stroke-width:1.0;"/><text fill="#D9D3D0" font-family="Verdana" font-size="14" lengthAdjust="spacing" textLength="41" x="67" y="376.4873">User2</text><ellipse cx="90.5" cy="388.7891" fill="#003153" rx="8" ry="8" style="stroke:#D9D3D0;stroke-width:1.0;"/><path d="M90.5,396.7891 L90.5,423.7891 M77.5,404.7891 L103.5,404.7891 M90.5,423.7891 L77.5,438.7891 M90.5,423.7891 L103.5,438.7891 " fill="none" style="stroke:#D9D3D0;stroke-width:1.0;"/><rect fill="#003153" height="30.2969" rx="2.5" ry="2.5" style="stroke:#D9D3D0;stroke-width:1.0;" width="130" x="134" y="51"/><text fill="#D9D3D0" font-family="Verdana" font-size="14" lengthAdjust="spacing" textLength="116" x="141" y="70.9951">AmazonRoute53</text><rect fill="#003153" height="30.2969" rx="2.5" ry="2.5" style="stroke:#D9D3D0;stroke-width:1.0;" width="130" x="134" y="363.4922"/><text fill="#D9D3D0" font-family="Verdana" font-size="14" lengthAdjust="spacing" textLength="116" x="141" y="383.4873">AmazonRoute53</text><rect fill="#003153" height="30.2969" rx="2.5" ry="2.5" style="stroke:#D9D3D0;stroke-width:1.0;" width="98" x="294" y="51"/><text fill="#D9D3D0" font-family="Verdana" font-size="14" lengthAdjust="spacing" textLength="84" x="301" y="70.9951">AmazonVPC</text><rect fill="#003153" height="30.2969" rx="2.5" ry="2.5" style="stroke:#D9D3D0;stroke-width:1.0;" width="98" x="294" y="363.4922"/><text fill="#D9D3D0" font-family="Verdana" font-size="14" lengthAdjust="spacing" textLength="84" x="301" y="383.4873">AmazonVPC</text><rect fill="#003153" height="30.2969" rx="2.5" ry="2.5" style="stroke:#D9D3D0;stroke-width:1.0;" width="88" x="422" y="51"/><text fill="#D9D3D0" font-family="Verdana" font-size="14" lengthAdjust="spacing" textLength="74" x="429" y="70.9951">AmazonS3</text><rect fill="#003153" height="30.2969" rx="2.5" ry="2.5" style="stroke:#D9D3D0;stroke-width:1.0;" width="88" x="422" y="363.4922"/><text fill="#D9D3D0" font-family="Verdana" font-size="14" lengthAdjust="spacing" textLength="74" x="429" y="383.4873">AmazonS3</text><rect fill="#003153" height="30.2969" rx="2.5" ry="2.5" style="stroke:#D9D3D0;stroke-width:1.0;" width="224" x="540" y="51"/><text fill="#D9D3D0" font-family="Verdana" font-size="14" lengthAdjust="spacing" textLength="210" x="547" y="70.9951">AWSDatabaseMigrationService</text><rect fill="#003153" height="30.2969" rx="2.5" ry="2.5" style="stroke:#D9D3D0;stroke-width:1.0;" width="224" x="540" y="363.4922"/><text fill="#D9D3D0" font-family="Verdana" font-size="14" lengthAdjust="spacing" textLength="210" x="547" y="383.4873">AWSDatabaseMigrationService</text><rect fill="#003153" height="30.2969" rx="2.5" ry="2.5" style="stroke:#D9D3D0;stroke-width:1.0;" width="98" x="794" y="51"/><text fill="#D9D3D0" font-family="Verdana" font-size="14" lengthAdjust="spacing" textLength="84" x="801" y="70.9951">AmazonEC2</text><rect fill="#003153" height="30.2969" rx="2.5" ry="2.5" style="stroke:#D9D3D0;stroke-width:1.0;" width="98" x="794" y="363.4922"/><text fill="#D9D3D0" font-family="Verdana" font-size="14" lengthAdjust="spacing" textLength="84" x="801" y="383.4873">AmazonEC2</text><rect fill="#003153" height="30.2969" rx="2.5" ry="2.5" style="stroke:#D9D3D0;stroke-width:1.0;" width="71" x="928.5" y="51"/><text fill="#D9D3D0" font-family="Verdana" font-size="14" lengthAdjust="spacing" textLength="57" x="935.5" y="70.9951">AWSELB</text><rect fill="#003153" height="30.2969" rx="2.5" ry="2.5" style="stroke:#D9D3D0;stroke-width:1.0;" width="71" x="928.5" y="363.4922"/><text fill="#D9D3D0" font-family="Verdana" font-size="14" lengthAdjust="spacing" textLength="57" x="935.5" y="383.4873">AWSELB</text><rect fill="#003153" height="30.2969" rx="2.5" ry="2.5" style="stroke:#D9D3D0;stroke-width:1.0;" width="87" x="1029.5" y="51"/><text fill="#D9D3D0" font-family="Verdana" font-size="14" lengthAdjust="spacing" textLength="73" x="1036.5" y="70.9951">AWSShield</text><rect fill="#003153" height="30.2969" rx="2.5" ry="2.5" style="stroke:#D9D3D0;stroke-width:1.0;" width="87" x="1029.5" y="363.4922"/><text fill="#D9D3D0" font-family="Verdana" font-size="14" lengthAdjust="spacing" textLength="73" x="1036.5" y="383.4873">AWSShield</text><rect fill="#003153" height="30.2969" rx="2.5" ry="2.5" style="stroke:#D9D3D0;stroke-width:1.0;" width="75" x="1146.5" y="51"/><text fill="#D9D3D0" font-family="Verdana" font-size="14" lengthAdjust="spacing" textLength="61" x="1153.5" y="70.9951">AWSWAF</text><rect fill="#003153" height="30.2969" rx="2.5" ry="2.5" style="stroke:#D9D3D0;stroke-width:1.0;" width="75" x="1146.5" y="363.4922"/><text fill="#D9D3D0" font-family="Verdana" font-size="14" lengthAdjust="spacing" textLength="61" x="1153.5" y="383.4873">AWSWAF</text><polygon fill="#D9D3D0" points="187,109.4297,197,113.4297,187,117.4297,191,113.4297" style="stroke:#D9D3D0;stroke-width:1.0;"/><line style="stroke:#D9D3D0;stroke-width:1.0;" x1="33.5" x2="193" y1="113.4297" y2="113.4297"/><text fill="#D9D3D0" font-family="Verdana" font-size="13" lengthAdjust="spacing" textLength="32" x="40.5" y="108.3638">Uses</text><polygon fill="#D9D3D0" points="187,138.5625,197,142.5625,187,146.5625,191,142.5625" style="stroke:#D9D3D0;stroke-width:1.0;"/><line style="stroke:#D9D3D0;stroke-width:1.0;" x1="90.5" x2="193" y1="142.5625" y2="142.5625"/><text fill="#D9D3D0" font-family="Verdana" font-size="13" lengthAdjust="spacing" textLength="32" x="97.5" y="137.4966">Uses</text><polygon fill="#D9D3D0" points="454,167.6953,464,171.6953,454,175.6953,458,171.6953" style="stroke:#D9D3D0;stroke-width:1.0;"/><line style="stroke:#D9D3D0;stroke-width:1.0;" x1="343" x2="460" y1="171.6953" y2="171.6953"/><text fill="#D9D3D0" font-family="Verdana" font-size="13" lengthAdjust="spacing" textLength="87" x="350" y="166.6294">Data Transfer</text><polygon fill="#D9D3D0" points="640,196.8281,650,200.8281,640,204.8281,644,200.8281" style="stroke:#D9D3D0;stroke-width:1.0;"/><line style="stroke:#D9D3D0;stroke-width:1.0;" x1="466" x2="646" y1="200.8281" y2="200.8281"/><text fill="#D9D3D0" font-family="Verdana" font-size="13" lengthAdjust="spacing" textLength="59" x="473" y="195.7622">Migration</text><polygon fill="#D9D3D0" points="831,225.9609,841,229.9609,831,233.9609,835,229.9609" style="stroke:#D9D3D0;stroke-width:1.0;"/><line style="stroke:#D9D3D0;stroke-width:1.0;" x1="652" x2="837" y1="229.9609" y2="229.9609"/><text fill="#D9D3D0" font-family="Verdana" font-size="13" lengthAdjust="spacing" textLength="49" x="659" y="224.895">Hosting</text><polygon fill="#D9D3D0" points="952,255.0938,962,259.0938,952,263.0938,956,259.0938" style="stroke:#D9D3D0;stroke-width:1.0;"/><line style="stroke:#D9D3D0;stroke-width:1.0;" x1="843" x2="958" y1="259.0938" y2="259.0938"/><text fill="#D9D3D0" font-family="Verdana" font-size="13" lengthAdjust="spacing" textLength="97" x="850" y="254.0278">Load Balancing</text><polygon fill="#D9D3D0" points="1061,284.2266,1071,288.2266,1061,292.2266,1065,288.2266" style="stroke:#D9D3D0;stroke-width:1.0;"/><line style="stroke:#D9D3D0;stroke-width:1.0;" x1="964" x2="1067" y1="288.2266" y2="288.2266"/><text fill="#D9D3D0" font-family="Verdana" font-size="13" lengthAdjust="spacing" textLength="52" x="971" y="283.1606">Security</text><polygon fill="#D9D3D0" points="1172,313.3594,1182,317.3594,1172,321.3594,1176,317.3594" style="stroke:#D9D3D0;stroke-width:1.0;"/><line style="stroke:#D9D3D0;stroke-width:1.0;" x1="1073" x2="1178" y1="317.3594" y2="317.3594"/><text fill="#D9D3D0" font-family="Verdana" font-size="13" lengthAdjust="spacing" textLength="46" x="1080" y="312.2935">Firewall</text><polygon fill="#D9D3D0" points="210,342.4922,200,346.4922,210,350.4922,206,346.4922" style="stroke:#D9D3D0;stroke-width:1.0;"/><line style="stroke:#D9D3D0;stroke-width:1.0;" x1="204" x2="1183" y1="346.4922" y2="346.4922"/><text fill="#D9D3D0" font-family="Verdana" font-size="13" lengthAdjust="spacing" textLength="81" x="216" y="341.4263">DNS Routing</text><!--SRC=[VP3FJeGm48VlVOhk0m0kwcKF9ko_U63DHbptFC00JKfBsc69Fhqj6F2WdZhzlj_C9BEY1blakUonCq8HOwiIAw6G9zViV3cbl27gx2QA30nXBQZfyzwYARGYL1GMkerWi19owzz0E663IfkWaw2eRsLqMp-4Tr4fh1iE1Md3Bsx0-aSTCpOY7Zpnf8LFhLvrJ_XuppVUsz76VresqVVpRebatkw1WByPKBP2msRXGzVConmidaHjW8GpQ6wYGDSt8_PVRjvrsCMkwLbR4gfc2vls7DAjiwc6ac_1tQGOGnEV4baZK9Okb67H6q4VR85JufeSdJuAWmD8oRx9B_VOlsJS__oEBm00]--></g></svg>