<?xml version="1.0" encoding="us-ascii" standalone="no"?><svg xmlns="http://www.w3.org/2000/svg" xmlns:xlink="http://www.w3.org/1999/xlink" contentStyleType="text/css" height="333.3333px" preserveAspectRatio="none" style="width:1337px;height:333px;" version="1.1" viewBox="0 0 1337 333" width="1337.5px" zoomAndPan="magnify"><defs><linearGradient id="gakllro3w056a0" x1="50%" x2="50%" y1="0%" y2="100%"><stop offset="0%" stop-color="#F18E3E"/><stop offset="100%" stop-color="#EC7211"/></linearGradient></defs><g><!--entity User1--><g id="elem_User1"><ellipse cx="1029.1667" cy="77.0104" fill="url(#gakllro3w056a0)" rx="8.3333" ry="8.3333" style="stroke:#EC7211;stroke-width:1.0416666666666667;"/><path d="M1029.1667,85.3438 L1029.1667,113.4688 M1015.625,93.6771 L1042.7083,93.6771 M1029.1667,113.4688 L1015.625,129.0938 M1029.1667,113.4688 L1042.7083,129.0938 " fill="none" style="stroke:#EC7211;stroke-width:1.0416666666666667;"/><text fill="#4E5D6C" font-family="Verdana" font-size="12.5" lengthAdjust="spacing" textLength="38.5417" x="1009.8958" y="147.9882">User1</text></g><!--entity User2--><g id="elem_User2"><ellipse cx="1114.5833" cy="77.0104" fill="url(#gakllro3w056a0)" rx="8.3333" ry="8.3333" style="stroke:#EC7211;stroke-width:1.0416666666666667;"/><path d="M1114.5833,85.3438 L1114.5833,113.4688 M1101.0417,93.6771 L1128.125,93.6771 M1114.5833,113.4688 L1101.0417,129.0938 M1114.5833,113.4688 L1128.125,129.0938 " fill="none" style="stroke:#EC7211;stroke-width:1.0416666666666667;"/><text fill="#4E5D6C" font-family="Verdana" font-size="12.5" lengthAdjust="spacing" textLength="38.5417" x="1095.3125" y="147.9882">User2</text></g><!--entity AmazonRoute53--><g id="elem_AmazonRoute53"><ellipse cx="1278.125" cy="77.0104" fill="url(#gakllro3w056a0)" rx="8.3333" ry="8.3333" style="stroke:#EC7211;stroke-width:1.0416666666666667;"/><path d="M1278.125,85.3438 L1278.125,113.4688 M1264.5833,93.6771 L1291.6667,93.6771 M1278.125,113.4688 L1264.5833,129.0938 M1278.125,113.4688 L1291.6667,129.0938 " fill="none" style="stroke:#EC7211;stroke-width:1.0416666666666667;"/><text fill="#4E5D6C" font-family="Verdana" font-size="12.5" lengthAdjust="spacing" textLength="105.2083" x="1225.5208" y="147.9882">AmazonRoute53</text></g><!--entity AmazonVPC--><g id="elem_AmazonVPC"><ellipse cx="43.75" cy="254.0625" fill="url(#gakllro3w056a0)" rx="8.3333" ry="8.3333" style="stroke:#EC7211;stroke-width:1.0416666666666667;"/><path d="M43.75,262.3958 L43.75,290.5208 M30.2083,270.7292 L57.2917,270.7292 M43.75,290.5208 L30.2083,306.1458 M43.75,290.5208 L57.2917,306.1458 " fill="none" style="stroke:#EC7211;stroke-width:1.0416666666666667;"/><text fill="#4E5D6C" font-family="Verdana" font-size="12.5" lengthAdjust="spacing" textLength="75" x="6.25" y="325.0403">AmazonVPC</text></g><!--entity AmazonEC2--><g id="elem_AmazonEC2"><ellipse cx="613.5417" cy="254.0625" fill="url(#gakllro3w056a0)" rx="8.3333" ry="8.3333" style="stroke:#EC7211;stroke-width:1.0416666666666667;"/><path d="M613.5417,262.3958 L613.5417,290.5208 M600,270.7292 L627.0833,270.7292 M613.5417,290.5208 L600,306.1458 M613.5417,290.5208 L627.0833,306.1458 " fill="none" style="stroke:#EC7211;stroke-width:1.0416666666666667;"/><text fill="#4E5D6C" font-family="Verdana" font-size="12.5" lengthAdjust="spacing" textLength="75" x="576.0417" y="325.0403">AmazonEC2</text></g><!--entity AWSELB--><g id="elem_AWSELB"><ellipse cx="626.0417" cy="77.0104" fill="url(#gakllro3w056a0)" rx="8.3333" ry="8.3333" style="stroke:#EC7211;stroke-width:1.0416666666666667;"/><path d="M626.0417,85.3438 L626.0417,113.4688 M612.5,93.6771 L639.5833,93.6771 M626.0417,113.4688 L612.5,129.0938 M626.0417,113.4688 L639.5833,129.0938 " fill="none" style="stroke:#EC7211;stroke-width:1.0416666666666667;"/><text fill="#4E5D6C" font-family="Verdana" font-size="12.5" lengthAdjust="spacing" textLength="51.0417" x="600.5208" y="147.9882">AWSELB</text></g><!--entity AWSWAF--><g id="elem_AWSWAF"><ellipse cx="935.4167" cy="77.0104" fill="url(#gakllro3w056a0)" rx="8.3333" ry="8.3333" style="stroke:#EC7211;stroke-width:1.0416666666666667;"/><path d="M935.4167,85.3438 L935.4167,113.4688 M921.875,93.6771 L948.9583,93.6771 M935.4167,113.4688 L921.875,129.0938 M935.4167,113.4688 L948.9583,129.0938 " fill="none" style="stroke:#EC7211;stroke-width:1.0416666666666667;"/><text fill="#4E5D6C" font-family="Verdana" font-size="12.5" lengthAdjust="spacing" textLength="55.2083" x="907.8125" y="147.9882">AWSWAF</text></g><!--entity AWSShield--><g id="elem_AWSShield"><ellipse cx="827.0833" cy="77.0104" fill="url(#gakllro3w056a0)" rx="8.3333" ry="8.3333" style="stroke:#EC7211;stroke-width:1.0416666666666667;"/><path d="M827.0833,85.3438 L827.0833,113.4688 M813.5417,93.6771 L840.625,93.6771 M827.0833,113.4688 L813.5417,129.0938 M827.0833,113.4688 L840.625,129.0938 " fill="none" style="stroke:#EC7211;stroke-width:1.0416666666666667;"/><text fill="#4E5D6C" font-family="Verdana" font-size="12.5" lengthAdjust="spacing" textLength="67.7083" x="793.2292" y="147.9882">AWSShield</text></g><!--entity AmazonS3--><g id="elem_AmazonS3"><ellipse cx="161.4583" cy="254.0625" fill="url(#gakllro3w056a0)" rx="8.3333" ry="8.3333" style="stroke:#EC7211;stroke-width:1.0416666666666667;"/><path d="M161.4583,262.3958 L161.4583,290.5208 M147.9167,270.7292 L175,270.7292 M161.4583,290.5208 L147.9167,306.1458 M161.4583,290.5208 L175,306.1458 " fill="none" style="stroke:#EC7211;stroke-width:1.0416666666666667;"/><text fill="#4E5D6C" font-family="Verdana" font-size="12.5" lengthAdjust="spacing" textLength="66.6667" x="128.125" y="325.0403">AmazonS3</text></g><!--entity AWSDatabaseMigrationService--><g id="elem_AWSDatabaseMigrationService"><ellipse cx="341.6667" cy="254.0625" fill="url(#gakllro3w056a0)" rx="8.3333" ry="8.3333" style="stroke:#EC7211;stroke-width:1.0416666666666667;"/><path d="M341.6667,262.3958 L341.6667,290.5208 M328.125,270.7292 L355.2083,270.7292 M341.6667,290.5208 L328.125,306.1458 M341.6667,290.5208 L355.2083,306.1458 " fill="none" style="stroke:#EC7211;stroke-width:1.0416666666666667;"/><text fill="#4E5D6C" font-family="Verdana" font-size="12.5" lengthAdjust="spacing" textLength="198.9583" x="242.1875" y="325.0403">AWSDatabaseMigrationService</text></g><!--link User1 to AmazonRoute53--><g id="link_User1_AmazonRoute53"><path d="M1033.6563,67.5313 C1037.6667,51.4896 1045.125,34.9167 1058.8542,25.1042 C1075.0521,13.5208 1084.2708,20.5417 1103.6458,25.1042 C1144.8125,34.7708 1181.9587,52.5793 1214.7399,71.4543 " fill="none" id="User1-to-AmazonRoute53" style="stroke:#EC7211;stroke-width:3.125;"/><polygon fill="#EC7211" points="1220.1563,74.5729,1214.1109,66.2841,1215.6426,71.974,1209.9527,73.5058,1220.1563,74.5729" style="stroke:#EC7211;stroke-width:3.125;"/><text fill="#4E5D6C" font-family="Verdana" font-size="12.5" lengthAdjust="spacing" textLength="32.2917" x="1065.1042" y="28.1965">Uses</text></g><!--link User2 to AmazonRoute53--><g id="link_User2_AmazonRoute53"><path d="M1139.4167,111.8958 C1160.7813,111.8958 1186.1667,111.8958 1213.8438,111.8958 " fill="none" id="User2-to-AmazonRoute53" style="stroke:#EC7211;stroke-width:3.125;"/><polygon fill="#EC7211" points="1220.0938,111.8958,1210.7188,107.7292,1214.8854,111.8958,1210.7188,116.0625,1220.0938,111.8958" style="stroke:#EC7211;stroke-width:3.125;"/><text fill="#4E5D6C" font-family="Verdana" font-size="12.5" lengthAdjust="spacing" textLength="32.2917" x="1163.5417" y="100.5819">Uses</text></g><!--link AmazonVPC to AmazonEC2--><g id="link_AmazonVPC_AmazonEC2"><path d="M86.8854,253.8333 C92.4792,250.3542 98.3021,247.1875 104.1667,244.6875 C232.4479,189.9375 278.5729,173.6042 415.1042,202.1563 C471.4167,213.9271 525.8088,239.644 564.8713,260.8419 " fill="none" id="AmazonVPC-to-AmazonEC2" style="stroke:#EC7211;stroke-width:3.125;"/><polygon fill="#EC7211" points="570.3646,263.8229,564.112,255.6892,565.7869,261.3387,560.1373,263.0136,570.3646,263.8229" style="stroke:#EC7211;stroke-width:3.125;"/><text fill="#4E5D6C" font-family="Verdana" font-size="12.5" lengthAdjust="spacing" textLength="57.2917" x="351.5625" y="205.2486">Contains</text></g><!--link AmazonVPC to AmazonEC2--><g id="link_AmazonVPC_AmazonEC2"><path d="M86.8854,253.8333 C92.4792,250.3542 98.3021,247.1875 104.1667,244.6875 C232.4479,189.9375 278.5729,173.6042 415.1042,202.1563 C471.4167,213.9271 525.8088,239.644 564.8713,260.8419 " fill="none" id="AmazonVPC-to-AmazonEC2-1" style="stroke:#EC7211;stroke-width:3.125;"/><polygon fill="#EC7211" points="570.3646,263.8229,564.112,255.6892,565.7869,261.3387,560.1373,263.0136,570.3646,263.8229" style="stroke:#EC7211;stroke-width:3.125;"/><text fill="#4E5D6C" font-family="Verdana" font-size="12.5" lengthAdjust="spacing" textLength="57.2917" x="351.5625" y="205.2486">Contains</text></g><!--link AmazonVPC to AmazonEC2--><g id="link_AmazonVPC_AmazonEC2"><path d="M86.8854,253.8333 C92.4792,250.3542 98.3021,247.1875 104.1667,244.6875 C232.4479,189.9375 278.5729,173.6042 415.1042,202.1563 C471.4167,213.9271 525.8088,239.644 564.8713,260.8419 " fill="none" id="AmazonVPC-to-AmazonEC2-2" style="stroke:#EC7211;stroke-width:3.125;"/><polygon fill="#EC7211" points="570.3646,263.8229,564.112,255.6892,565.7869,261.3387,560.1373,263.0136,570.3646,263.8229" style="stroke:#EC7211;stroke-width:3.125;"/><text fill="#4E5D6C" font-family="Verdana" font-size="12.5" lengthAdjust="spacing" textLength="57.2917" x="351.5625" y="205.2486">Contains</text></g><!--reverse link AWSELB to AmazonEC2--><g id="link_AWSELB_AmazonEC2"><path d="M588.863,117.1812 C548.4672,123.3374 485.4896,139.6875 454.1667,187.3958 C421.9375,236.4792 513.2604,266.1458 570.7188,279.4896 " fill="none" id="AWSELB-backto-AmazonEC2" style="stroke:#EC7211;stroke-width:3.125;"/><polygon fill="#EC7211" points="595.0417,116.2396,585.1459,113.5329,589.8928,117.0243,586.4014,121.7711,595.0417,116.2396" style="stroke:#EC7211;stroke-width:3.125;"/><text fill="#4E5D6C" font-family="Verdana" font-size="12.5" lengthAdjust="spacing" textLength="114.5833" x="460.4167" y="205.2486">Load Balanced by</text></g><!--reverse link AWSELB to AmazonEC2--><g id="link_AWSELB_AmazonEC2"><path d="M622.4712,162.8695 C620.5545,189.6924 618.5625,217.6771 616.6458,244.4583 " fill="none" id="AWSELB-backto-AmazonEC2-1" style="stroke:#EC7211;stroke-width:3.125;"/><polygon fill="#EC7211" points="622.9167,156.6354,618.0924,165.6896,622.5454,161.8305,626.4045,166.2836,622.9167,156.6354" style="stroke:#EC7211;stroke-width:3.125;"/><text fill="#4E5D6C" font-family="Verdana" font-size="12.5" lengthAdjust="spacing" textLength="114.5833" x="626.0417" y="205.2486">Load Balanced by</text></g><!--reverse link AWSELB to AmazonEC2--><g id="link_AWSELB_AmazonEC2"><path d="M663.0672,123.6446 C709.0255,138.353 781,168.875 754.1667,213.4375 C733.1458,248.3438 689.6667,267.75 656.5833,277.9271 " fill="none" id="AWSELB-backto-AmazonEC2-2" style="stroke:#EC7211;stroke-width:3.125;"/><polygon fill="#EC7211" points="657.1146,121.7396,664.7734,128.5655,662.0751,123.3271,667.3135,120.6288,657.1146,121.7396" style="stroke:#EC7211;stroke-width:3.125;"/><text fill="#4E5D6C" font-family="Verdana" font-size="12.5" lengthAdjust="spacing" textLength="114.5833" x="765.625" y="205.2486">Load Balanced by</text></g><!--link AWSELB to AWSWAF--><g id="link_AWSELB_AWSWAF"><path d="M657.25,76.1771 C676.4271,57.0417 702.7292,35.3438 731.25,25.1042 C771.3333,10.6979 786.6458,11.7292 827.0833,25.1042 C855.9167,34.6354 878.1128,51.4662 897.7899,70.5079 " fill="none" id="AWSELB-to-AWSWAF" style="stroke:#EC7211;stroke-width:3.125;"/><polygon fill="#EC7211" points="902.2813,74.8542,898.4418,65.3405,898.5385,71.2322,892.6467,71.3289,902.2813,74.8542" style="stroke:#EC7211;stroke-width:3.125;"/><text fill="#4E5D6C" font-family="Verdana" font-size="12.5" lengthAdjust="spacing" textLength="83.3333" x="737.5" y="28.1965">Protected by</text></g><!--link AWSELB to AWSShield--><g id="link_AWSELB_AWSShield"><path d="M657.0104,111.8958 C692.1458,111.8958 743.2708,111.8958 781.5313,111.8958 " fill="none" id="AWSELB-to-AWSShield" style="stroke:#EC7211;stroke-width:3.125;"/><polygon fill="#EC7211" points="787.7813,111.8958,778.4063,107.7292,782.5729,111.8958,778.4063,116.0625,787.7813,111.8958" style="stroke:#EC7211;stroke-width:3.125;"/><text fill="#4E5D6C" font-family="Verdana" font-size="12.5" lengthAdjust="spacing" textLength="83.3333" x="680.7292" y="100.5819">Protected by</text></g><!--link AWSELB to AmazonRoute53--><g id="link_AWSELB_AmazonRoute53"><path d="M657.0208,100.5938 C685.8542,90.5104 730.2083,76.0625 769.7917,67.6354 C923.5104,34.9375 963.9583,34.5729 1120.8333,25.1042 C1162.4271,22.5938 1177.4271,6.25 1214.5833,25.1042 C1232.5729,34.2292 1243.369,45.7975 1253.6815,62.2559 " fill="none" id="AWSELB-to-AmazonRoute53" style="stroke:#EC7211;stroke-width:3.125;"/><polygon fill="#EC7211" points="1257,67.5521,1255.553,57.3954,1254.2346,63.1386,1248.4914,61.8201,1257,67.5521" style="stroke:#EC7211;stroke-width:3.125;"/><text fill="#4E5D6C" font-family="Verdana" font-size="12.5" lengthAdjust="spacing" textLength="81.25" x="1127.0833" y="28.1965">DNS Routing</text></g><!--link AmazonS3 to AmazonEC2--><g id="link_AmazonS3_AmazonEC2"><path d="M170.5521,244.2813 C176.2188,228.1979 185.3438,211.6771 200,202.1563 C224.0625,186.5104 236.0417,199.1458 264.5833,202.1563 C377.1146,213.9896 499.294,250.6144 564.5127,272.1353 " fill="none" id="AmazonS3-to-AmazonEC2" style="stroke:#EC7211;stroke-width:3.125;"/><polygon fill="#EC7211" points="570.4479,274.0938,562.8508,267.1992,565.5019,272.4617,560.2394,275.1128,570.4479,274.0938" style="stroke:#EC7211;stroke-width:3.125;"/><text fill="#4E5D6C" font-family="Verdana" font-size="12.5" lengthAdjust="spacing" textLength="52.0833" x="206.25" y="205.2486">Storage</text></g><!--link AWSDatabaseMigrationService to AmazonEC2--><g id="link_AWSDatabaseMigrationService_AmazonEC2"><path d="M446.7813,288.9479 C489.8125,288.9479 530.9479,288.9479 564.1771,288.9479 " fill="none" id="AWSDatabaseMigrationService-to-AmazonEC2" style="stroke:#EC7211;stroke-width:3.125;"/><polygon fill="#EC7211" points="570.4271,288.9479,561.0521,284.7813,565.2188,288.9479,561.0521,293.1146,570.4271,288.9479" style="stroke:#EC7211;stroke-width:3.125;"/><text fill="#4E5D6C" font-family="Verdana" font-size="12.5" lengthAdjust="spacing" textLength="76.0417" x="470.5729" y="277.634">Migrates To</text></g><!--SRC=[jPB1ReCm343l-Ohq0m8htIuzJ6ffTw8JMjPnDk1294XGObfjNxzGEhL2Ma_RAOdVinKxcL6DBN8uEM4iw0ePcvLuK1hvAfFfVfVmcgXpop2qS0egHNMVzmvjOJIXfg0mRUYp6yZTi0hbWHC7OqNNWAQ-RSBZ_35u24lbY34eo5Y-zmNcD_k8iNE8YsU-Qk7Bw3VJ4puj-7BWxaoZNoaRenzfV5MsSUHnx6y9Ihi_CTWrAlfki3AvJTPUIGoKV0s-uG9Bdd_-YyakQ9IorOkNKci82xgKkkMoLjYKTvJ983UlaWydfQkVHkLYEWhf7mo6F-BhR80W1uSxLLaWvNMqHrNWD6VawFYxOTy0]--></g></svg>